<?xml version="1.0" standalone="no"?><!DOCTYPE svg PUBLIC "-//W3C//DTD SVG 1.1//EN" "http://www.w3.org/Graphics/SVG/1.1/DTD/svg11.dtd"><svg t="1689894554353" class="icon" viewBox="0 0 1024 1024" version="1.1" xmlns="http://www.w3.org/2000/svg" p-id="7121" xmlns:xlink="http://www.w3.org/1999/xlink" width="20" height="20"><path d="M958.72 225.856l-82.688 211.136-13.76 35.2c-3.776 9.728-14.784 14.528-24.512 10.688l-35.2-13.76L591.36 386.368C581.632 382.528 576.832 371.584 580.672 361.856l13.76-35.2c3.776-9.728 14.784-14.528 24.512-10.688l174.912 68.544c-50.56-124.416-171.584-212.672-314.112-212.672-187.84 0-340.16 152.32-340.16 340.16s152.256 340.16 340.16 340.16c148.032 0 273.6-94.72 320.384-226.752l79.296 0c-49.408 174.4-209.408 302.336-399.68 302.336C250.112 927.744 64 741.632 64 512s186.112-415.744 415.744-415.744c157.056 0 293.376 87.296 363.968 215.872l44.608-113.856c3.776-9.728 14.784-14.528 24.512-10.688l35.2 13.76C957.696 205.184 962.496 216.128 958.72 225.856z" p-id="7122"></path></svg>